<svg xmlns="http://www.w3.org/2000/svg" viewBox="0 0 100 100" width="100" height="100"><rect x="0.00" y="0.00" width="20.50" height="20.50" rx="2.4" fill="rgba(11,15,17,0.12)"></rect><rect x="26.50" y="0.00" width="20.50" height="20.50" rx="2.4" fill="#0B0F11"></rect><rect x="53.00" y="0.00" width="20.50" height="20.50" rx="2.4" fill="rgba(11,15,17,0.12)"></rect><rect x="79.50" y="0.00" width="20.50" height="20.50" rx="2.4" fill="rgba(11,15,17,0.12)"></rect><rect x="0.00" y="26.50" width="20.50" height="20.50" rx="2.4" fill="rgba(11,15,17,0.12)"></rect><rect x="26.50" y="26.50" width="20.50" height="20.50" rx="2.4" fill="#0B0F11"></rect><rect x="53.00" y="26.50" width="20.50" height="20.50" rx="2.4" fill="#0B0F11"></rect><rect x="79.50" y="26.50" width="20.50" height="20.50" rx="2.4" fill="rgba(11,15,17,0.12)"></rect><rect x="0.00" y="53.00" width="20.50" height="20.50" rx="2.4" fill="#0B0F11"></rect><rect x="26.50" y="53.00" width="20.50" height="20.50" rx="2.4" fill="#0B0F11"></rect><rect x="53.00" y="53.00" width="20.50" height="20.50" rx="2.4" fill="#0B0F11"></rect><rect x="79.50" y="53.00" width="20.50" height="20.50" rx="2.4" fill="#0B0F11"></rect><rect x="0.00" y="79.50" width="20.50" height="20.50" rx="2.4" fill="#0B0F11"></rect><rect x="26.50" y="79.50" width="20.50" height="20.50" rx="2.4" fill="#0B0F11"></rect><rect x="53.00" y="79.50" width="20.50" height="20.50" rx="2.4" fill="#0B0F11"></rect><rect x="79.50" y="79.50" width="20.50" height="20.50" rx="2.4" fill="#0B0F11"></rect></svg>